<svg id="Layer_1" data-name="Layer 1" xmlns="http://www.w3.org/2000/svg" viewBox="0 0 100 100"><defs><style>.cls-1{fill:none;stroke:#ffe18a;stroke-miterlimit:10;stroke-width:1.65px;}.cls-2{fill:#ffe18a;opacity:0.3;}</style></defs><title>blockchain</title><polygon class="cls-1" points="29.86 26.74 16.43 26.74 3 50 16.43 73.26 29.86 73.26 43.29 50 29.86 26.74"/><polygon class="cls-2" points="29.86 26.74 16.43 26.74 3 50 16.43 73.26 29.86 73.26 43.29 50 29.86 26.74"/><polyline class="cls-1" points="16.43 26.74 29.86 50 16.43 73.26"/><line class="cls-1" x1="29.86" y1="50" x2="43.29" y2="50"/><polygon class="cls-1" points="56.71 26.74 43.29 26.74 29.86 50 43.29 73.26 56.71 73.26 70.14 50 56.71 26.74"/><polygon class="cls-2" points="56.71 26.74 43.29 26.74 29.86 50 43.29 73.26 56.71 73.26 70.14 50 56.71 26.74"/><polyline class="cls-1" points="43.29 26.74 56.71 50 43.29 73.26"/><line class="cls-1" x1="56.71" y1="50" x2="70.14" y2="50"/><polygon class="cls-1" points="83.57 26.74 70.14 26.74 56.71 50 70.14 73.26 83.57 73.26 97 50 83.57 26.74"/><polygon class="cls-2" points="83.57 26.74 70.14 26.74 56.71 50 70.14 73.26 83.57 73.26 97 50 83.57 26.74"/><polyline class="cls-1" points="70.14 26.74 83.57 50 70.14 73.26"/><line class="cls-1" x1="83.57" y1="50" x2="97" y2="50"/></svg>