<?xml version="1.0" standalone="no"?>
<!DOCTYPE svg PUBLIC "-//W3C//DTD SVG 20010904//EN"
 "http://www.w3.org/TR/2001/REC-SVG-20010904/DTD/svg10.dtd">
<svg version="1.0" xmlns="http://www.w3.org/2000/svg"
 width="1000.000000pt" height="1000.000000pt" viewBox="0 0 1000.000000 1000.000000"
 preserveAspectRatio="xMidYMid meet">
<metadata>
Created by potrace 1.11, written by Peter Selinger 2001-2013
</metadata>
<g transform="translate(0.000000,1000.000000) scale(0.100000,-0.100000)"
fill="#000000" stroke="none">
<path d="M4878 9275 c-2 -1 -46 -6 -98 -9 -52 -4 -106 -8 -120 -10 -14 -2 -52
-7 -85 -11 -129 -15 -132 -15 -320 -51 -765 -144 -1532 -548 -2125 -1119 -102
-99 -219 -221 -280 -294 -25 -30 -49 -59 -55 -65 -5 -6 -35 -42 -65 -81 -234
-295 -441 -643 -584 -980 -26 -60 -51 -119 -56 -130 -8 -19 -37 -101 -73 -205
-47 -136 -111 -375 -136 -510 -6 -30 -12 -65 -15 -76 -8 -36 -32 -210 -40
-284 -29 -258 -29 -686 -1 -920 18 -148 23 -179 52 -330 71 -379 181 -704 362
-1075 547 -1117 1568 -1948 2782 -2265 110 -28 224 -54 291 -65 18 -3 56 -10
83 -15 94 -17 246 -36 395 -48 182 -14 677 -6 790 12 14 3 52 7 85 11 33 3 87
11 120 16 33 6 71 12 85 14 145 19 459 100 476 123 10 13 13 154 14 623 0 600
0 606 -20 624 -24 22 -23 22 -222 -48 -71 -24 -128 -43 -128 -41 0 2 -12 -1
-26 -7 -28 -10 -177 -46 -229 -55 -16 -3 -66 -11 -110 -19 -426 -75 -942 -44
-1370 80 -155 45 -377 129 -460 173 -16 9 -32 17 -35 17 -12 2 -136 69 -217
117 -681 400 -1185 1054 -1396 1808 -19 69 -40 152 -47 185 -6 33 -16 78 -20
101 -5 22 -12 66 -16 99 -3 32 -7 67 -10 78 -23 124 -23 583 1 729 2 13 6 41
10 63 11 77 17 111 42 220 24 109 57 231 73 270 4 11 25 67 45 125 21 58 71
173 111 255 192 396 470 748 829 1047 22 18 42 36 45 39 13 15 245 173 330
225 336 203 777 362 1140 409 25 3 56 8 70 10 99 17 439 26 580 14 132 -11
224 -20 240 -24 8 -3 33 -7 55 -10 57 -9 74 -12 125 -24 25 -5 56 -12 70 -14
49 -9 237 -66 335 -102 147 -54 161 -56 182 -33 16 18 18 59 18 621 1 342 -3
611 -8 623 -7 16 -29 27 -81 42 -76 22 -276 67 -340 78 -21 3 -48 8 -60 10
-11 2 -37 7 -56 9 -19 3 -53 8 -75 12 -47 7 -49 8 -140 17 -38 4 -90 10 -115
12 -48 6 -597 14 -602 9z"/>
<path d="M5019 6936 c-2 -2 -35 -7 -73 -11 -384 -36 -810 -247 -1097 -542
-235 -242 -383 -506 -475 -848 -11 -40 -36 -181 -42 -230 -9 -80 -8 -354 1
-434 55 -474 311 -931 692 -1233 69 -54 176 -128 205 -141 8 -4 35 -19 60 -33
145 -84 394 -170 578 -199 23 -4 54 -9 70 -11 68 -12 392 -11 467 1 44 7 98
15 120 19 22 3 65 13 95 22 30 8 62 17 71 19 54 12 256 91 314 123 309 168
531 366 707 633 268 403 367 906 272 1374 -9 44 -17 87 -19 96 -2 9 -13 47
-24 84 -189 612 -663 1074 -1281 1248 -30 9 -68 19 -85 22 -16 3 -66 13 -110
21 -71 14 -435 30 -446 20z"/>
<path d="M7536 6918 c-9 -12 -16 -27 -16 -33 0 -6 28 -56 61 -110 55 -89 209
-383 209 -399 0 -3 9 -25 19 -49 73 -162 172 -502 196 -672 3 -22 10 -65 15
-95 5 -30 12 -84 15 -120 3 -36 8 -83 11 -105 13 -91 5 -480 -11 -599 -2 -17
-7 -53 -10 -81 -10 -85 -16 -116 -41 -235 -14 -63 -27 -125 -30 -138 -2 -12
-20 -75 -40 -139 -72 -238 -194 -509 -328 -728 -36 -59 -66 -115 -66 -125 0
-9 8 -24 18 -33 17 -15 75 -17 629 -17 336 0 619 3 628 6 46 18 249 604 301
869 2 11 10 54 19 95 18 92 44 256 51 324 3 28 7 62 9 75 26 156 26 810 0 936
-3 11 -7 42 -10 69 -15 145 -82 470 -125 611 -57 185 -78 247 -115 350 -65
180 -133 338 -152 353 -13 9 -153 12 -619 12 l-603 0 -15 -22z"/>
</g>
</svg>
