<svg id="Layer_1" data-name="Layer 1" xmlns="http://www.w3.org/2000/svg" viewBox="0 0 100 100"><defs><style>.cls-1{fill:#8affba;opacity:0.3;}.cls-2{fill:none;stroke:#8affba;stroke-miterlimit:10;stroke-width:1.65px;}</style></defs><title>users</title><path class="cls-1" d="M50,50A14.3,14.3,0,1,0,35.7,35.7,14.34,14.34,0,0,0,50,50Zm0,7.15c-9.47,0-28.6,4.83-28.6,14.3V78.6H78.6V71.45C78.6,62,59.47,57.15,50,57.15Z"/><path class="cls-2" d="M50,50A14.3,14.3,0,1,0,35.7,35.7,14.34,14.34,0,0,0,50,50Zm0,7.15c-9.47,0-28.6,4.83-28.6,14.3V78.6H78.6V71.45C78.6,62,59.47,57.15,50,57.15Z"/></svg>